<svg width="32" height="31" viewBox="0 0 32 31" fill="none" xmlns="http://www.w3.org/2000/svg">
<path d="M16.0034 7.40405C11.6634 7.40405 8.16271 10.8308 8.16271 15.0792C8.16271 19.3276 11.6634 22.7543 16.0034 22.7543C20.3434 22.7543 23.8441 19.3276 23.8441 15.0792C23.8441 10.8308 20.3434 7.40405 16.0034 7.40405ZM16.0034 20.069C13.1988 20.069 10.9059 17.8313 10.9059 15.0792C10.9059 12.3271 13.1919 10.0894 16.0034 10.0894C18.8149 10.0894 21.1009 12.3271 21.1009 15.0792C21.1009 17.8313 18.808 20.069 16.0034 20.069ZM25.9936 7.0901C25.9936 8.0854 25.1748 8.8803 24.1648 8.8803C23.1481 8.8803 22.336 8.07872 22.336 7.0901C22.336 6.10148 23.1549 5.2999 24.1648 5.2999C25.1748 5.2999 25.9936 6.10148 25.9936 7.0901ZM31.1866 8.90702C31.0706 6.50895 30.5111 4.38476 28.7164 2.63464C26.9285 0.88452 24.7585 0.336773 22.3087 0.216536C19.7839 0.0762589 12.2161 0.0762589 9.69127 0.216536C7.24831 0.330093 5.0783 0.877841 3.28361 2.62796C1.48892 4.37808 0.936179 6.50227 0.813348 8.90034C0.670046 11.3719 0.670046 18.7798 0.813348 21.2514C0.929355 23.6494 1.48892 25.7736 3.28361 27.5238C5.0783 29.2739 7.24148 29.8216 9.69127 29.9419C12.2161 30.0821 19.7839 30.0821 22.3087 29.9419C24.7585 29.8283 26.9285 29.2806 28.7164 27.5238C30.5042 25.7736 31.0638 23.6494 31.1866 21.2514C31.3299 18.7798 31.3299 11.3786 31.1866 8.90702ZM27.9248 23.9033C27.3925 25.2125 26.3621 26.2212 25.0178 26.7489C23.0047 27.5304 18.228 27.3501 16.0034 27.3501C13.7788 27.3501 8.99523 27.5238 6.989 26.7489C5.65151 26.2279 4.6211 25.2192 4.08201 23.9033C3.28361 21.9327 3.46785 17.2568 3.46785 15.0792C3.46785 12.9016 3.29043 8.21899 4.08201 6.25512C4.61427 4.94587 5.64469 3.93721 6.989 3.4095C9.00206 2.62796 13.7788 2.80832 16.0034 2.80832C18.228 2.80832 23.0116 2.63464 25.0178 3.4095C26.3553 3.93053 27.3857 4.93919 27.9248 6.25512C28.7232 8.22567 28.5389 12.9016 28.5389 15.0792C28.5389 17.2568 28.7232 21.9394 27.9248 23.9033Z" fill="white"/>
</svg>
