<svg width="191" height="38" viewBox="0 0 191 38" fill="none" xmlns="http://www.w3.org/2000/svg">
<mask id="mask0_21_112" style="mask-type:luminance" maskUnits="userSpaceOnUse" x="12" y="1" width="24" height="37">
<path d="M12.0695 1.12488H35.6105V37.8032H12.0695V1.12488Z" fill="white"/>
</mask>
<g mask="url(#mask0_21_112)">
<path d="M23.739 2.84538C18.2906 3.99775 14.7477 2.17728 13.2615 1.6107C19.829 6.55629 25.397 4.24194 28.6319 5.1268C30.8674 5.73728 32.502 7.89661 31.4984 15.0811C30.3944 22.9886 27.1609 32.3077 25.2141 32.3077C22.338 32.3077 12.1121 18.7193 14.085 16.7973C15.42 15.4968 17.6774 17.4188 17.6774 17.4188C17.6774 17.4188 15.2247 13.6461 12.7459 15.6038C11.9334 16.2458 12.0242 18.1362 12.4077 19.6302C14.6184 28.2524 23.266 37.8034 25.3159 37.8034C29.4843 37.8034 34.0886 21.7319 35.352 11.4717C36.115 5.26536 35.1554 2.90574 32.9104 1.72868C30.646 0.539266 29.6163 1.60109 23.739 2.84538Z" fill="#20AD96"/>
</g>
<mask id="mask1_21_112" style="mask-type:luminance" maskUnits="userSpaceOnUse" x="0" y="0" width="26" height="38">
<path d="M0 0.931458H25.6953V37.8032H0V0.931458Z" fill="white"/>
</mask>
<g mask="url(#mask1_21_112)">
<path d="M10.1407 32.3076C8.19532 32.3076 4.38296 23.0474 3.85778 15.081C3.23499 5.65487 5.67666 4.38863 9.99083 5.07457C13.2258 5.58902 21.4004 10.7226 25.5592 6.39156C25.5592 6.39156 22.2721 8.1407 13.9778 3.34875C5.31921 -1.65446 -0.160805 1.1373 0.00417322 11.4716C0.169151 21.8086 5.87188 37.8033 10.039 37.8033C11.1072 37.8033 13.9668 35.2091 16.7742 31.5064L15.7774 27.5129C13.5557 30.1921 11.2763 32.3076 10.1407 32.3076Z" fill="#20AD96"/>
</g>
<path d="M22.6088 15.6036C20.13 13.646 17.6774 17.4186 17.6774 17.4186C17.6774 17.4186 19.9348 15.4966 21.2698 16.7971C22.1634 17.6669 20.5576 20.9278 18.263 24.2382C18.8226 25.0311 19.4165 25.8213 20.0228 26.5799C21.2945 24.3328 22.3545 21.9471 22.9484 19.6301C23.3306 18.1361 23.4213 16.2457 22.6088 15.6036Z" fill="#20AD96"/>
<path d="M15.8338 27.4429C15.8159 27.4662 15.7967 27.4881 15.7774 27.5128L16.7741 31.5064C17.0766 31.1071 17.3777 30.6942 17.6774 30.2717C17.0422 29.3731 16.4208 28.4238 15.8338 27.4429Z" fill="#20AD96"/>
<path d="M50.7933 29.1769C48.9346 29.1769 47.2312 28.7475 45.6845 27.8874C44.1365 27.0245 42.9074 25.8213 41.9945 24.2766C41.0844 22.7291 40.6307 20.9923 40.6307 19.0635C40.6307 17.1319 41.0844 15.4006 41.9945 13.8669C42.9074 12.3304 44.1365 11.1327 45.6845 10.2726C47.2312 9.40965 48.9346 8.97751 50.7933 8.97751C52.6521 8.97751 54.3541 9.40965 55.9021 10.2726C57.4529 11.1327 58.6738 12.3304 59.5646 13.8669C60.4555 15.4006 60.901 17.1319 60.901 19.0635C60.901 20.9923 60.45 22.7291 59.5481 24.2766C58.649 25.8213 57.4309 27.0245 55.8911 27.8874C54.3513 28.7475 52.6521 29.1769 50.7933 29.1769ZM50.7933 24.7924C52.3689 24.7924 53.6309 24.2697 54.5768 23.223C55.5254 22.1735 56.0011 20.7866 56.0011 19.0635C56.0011 17.3185 55.5254 15.9274 54.5768 14.8875C53.6309 13.849 52.3689 13.3291 50.7933 13.3291C49.1985 13.3291 47.9254 13.8449 46.9768 14.8765C46.031 15.9055 45.558 17.3006 45.558 19.0635C45.558 20.8058 46.031 22.1955 46.9768 23.234C47.9254 24.2739 49.1985 24.7924 50.7933 24.7924Z" fill="#20AD96"/>
<path d="M62.6163 21.1103C62.6163 19.5011 62.9202 18.0867 63.5292 16.8685C64.141 15.6503 64.9728 14.7146 66.0259 14.0589C67.0776 13.4045 68.2503 13.0766 69.5454 13.0766C70.5751 13.0766 71.5169 13.2934 72.372 13.7242C73.2258 14.1563 73.8981 14.7366 74.3903 15.4637V8.18729H79.2021V28.9794H74.3903V26.7295C73.9393 27.4799 73.2959 28.0794 72.46 28.5294C71.6241 28.9794 70.6521 29.2043 69.5454 29.2043C68.2503 29.2043 67.0776 28.8724 66.0259 28.2056C64.9728 27.5403 64.141 26.595 63.5292 25.3686C62.9202 24.1435 62.6163 22.7236 62.6163 21.1103ZM74.3903 21.1432C74.3903 19.9442 74.0562 18.9976 73.3894 18.3062C72.7212 17.612 71.9101 17.2636 70.9532 17.2636C69.9963 17.2636 69.1838 17.6066 68.517 18.2897C67.8489 18.9743 67.5162 19.914 67.5162 21.1103C67.5162 22.3107 67.8489 23.2614 68.517 23.9638C69.1838 24.6662 69.9963 25.0174 70.9532 25.0174C71.9101 25.0174 72.7212 24.6717 73.3894 23.9803C74.0562 23.2861 74.3903 22.3395 74.3903 21.1432Z" fill="#20AD96"/>
<path d="M89.844 29.2044C88.3042 29.2044 86.9183 28.8779 85.6865 28.2221C84.4574 27.5677 83.4923 26.6307 82.7884 25.4125C82.0845 24.1943 81.7325 22.7717 81.7325 21.1433C81.7325 19.5299 82.0872 18.1114 82.7994 16.885C83.5143 15.6558 84.4904 14.7147 85.7305 14.0589C86.9692 13.4045 88.3592 13.0767 89.8989 13.0767C91.4387 13.0767 92.8273 13.4045 94.0674 14.0589C95.3061 14.7147 96.2808 15.6558 96.993 16.885C97.7079 18.1114 98.0653 19.5299 98.0653 21.1433C98.0653 22.7538 97.7038 24.1723 96.982 25.4015C96.2588 26.628 95.2731 27.5677 94.0234 28.2221C92.7764 28.8779 91.3837 29.2044 89.844 29.2044ZM89.844 25.0449C90.7637 25.0449 91.546 24.7087 92.1921 24.0352C92.8411 23.3629 93.1655 22.3985 93.1655 21.1433C93.1655 19.8853 92.8493 18.9195 92.2196 18.2459C91.5927 17.5737 90.8187 17.2362 89.8989 17.2362C88.9599 17.2362 88.1804 17.5695 87.5618 18.2349C86.9417 18.8975 86.6324 19.8674 86.6324 21.1433C86.6324 22.3985 86.9362 23.3629 87.5453 24.0352C88.1571 24.7087 88.9228 25.0449 89.844 25.0449Z" fill="#20AD96"/>
<path d="M110.197 13.1315C112.037 13.1315 113.505 13.7283 114.602 14.9204C115.702 16.1098 116.252 17.7437 116.252 19.8207V28.9793H111.468V20.4683C111.468 19.4188 111.194 18.6025 110.648 18.0208C110.105 17.4392 109.374 17.1483 108.454 17.1483C107.533 17.1483 106.8 17.4392 106.254 18.0208C105.711 18.6025 105.441 19.4188 105.441 20.4683V28.9793H100.623V13.3016H105.441V15.3814C105.927 14.6872 106.584 14.1385 107.409 13.7351C108.237 13.3332 109.166 13.1315 110.197 13.1315Z" fill="#20AD96"/>
<path d="M128.359 24.9077V28.9794H125.906C124.16 28.9794 122.801 28.5541 121.826 27.7008C120.85 26.8489 120.363 25.4592 120.363 23.5303V17.291H118.449V13.3016H120.363V9.48236H125.175V13.3016H128.331V17.291H125.175V23.5852C125.175 24.0544 125.286 24.3918 125.51 24.6004C125.737 24.8062 126.113 24.9077 126.638 24.9077H128.359Z" fill="#20AD96"/>
<path d="M138.183 29.2044C136.644 29.2044 135.258 28.8779 134.026 28.2221C132.797 27.5677 131.832 26.6307 131.128 25.4125C130.424 24.1943 130.072 22.7717 130.072 21.1433C130.072 19.5299 130.427 18.1114 131.139 16.885C131.854 15.6558 132.83 14.7147 134.07 14.0589C135.309 13.4045 136.699 13.0767 138.238 13.0767C139.778 13.0767 141.167 13.4045 142.407 14.0589C143.646 14.7147 144.62 15.6558 145.333 16.885C146.047 18.1114 146.405 19.5299 146.405 21.1433C146.405 22.7538 146.043 24.1723 145.322 25.4015C144.598 26.628 143.613 27.5677 142.363 28.2221C141.116 28.8779 139.723 29.2044 138.183 29.2044ZM138.183 25.0449C139.103 25.0449 139.886 24.7087 140.532 24.0352C141.181 23.3629 141.505 22.3985 141.505 21.1433C141.505 19.8853 141.189 18.9195 140.559 18.2459C139.932 17.5737 139.158 17.2362 138.238 17.2362C137.299 17.2362 136.52 17.5695 135.901 18.2349C135.281 18.8975 134.972 19.8674 134.972 21.1433C134.972 22.3985 135.276 23.3629 135.885 24.0352C136.497 24.7087 137.262 25.0449 138.183 25.0449Z" fill="#20AD96"/>
<path d="M159.043 28.9794L154.935 21.5329H153.78V28.9794H148.963V9.25735H157.047C158.604 9.25735 159.931 9.53036 161.028 10.075C162.128 10.6169 162.949 11.3618 163.492 12.3084C164.038 13.2522 164.311 14.3045 164.311 15.4637C164.311 16.7779 163.939 17.9495 163.195 18.9812C162.454 20.0101 161.361 20.7399 159.917 21.1707L164.482 28.9794H159.043ZM153.78 18.1361H156.766C157.646 18.1361 158.306 17.9207 158.746 17.4886C159.189 17.0578 159.411 16.4487 159.411 15.6612C159.411 14.9122 159.189 14.3223 158.746 13.8943C158.306 13.4635 157.646 13.2468 156.766 13.2468H153.78V18.1361Z" fill="#20AD96"/>
<path d="M169.744 11.6718C168.897 11.6718 168.206 11.4249 167.671 10.931C167.139 10.4344 166.873 9.81981 166.873 9.08723C166.873 8.33819 167.139 7.71536 167.671 7.22149C168.206 6.72487 168.897 6.47519 169.744 6.47519C170.569 6.47519 171.248 6.72487 171.784 7.22149C172.319 7.71536 172.587 8.33819 172.587 9.08723C172.587 9.81981 172.319 10.4344 171.784 10.931C171.248 11.4249 170.569 11.6718 169.744 11.6718ZM172.136 13.3016V28.9794H167.319V13.3016H172.136Z" fill="#20AD96"/>
<path d="M182.779 29.2044C181.239 29.2044 179.853 28.8779 178.621 28.2221C177.392 27.5677 176.427 26.6307 175.723 25.4125C175.019 24.1943 174.667 22.7717 174.667 21.1433C174.667 19.5299 175.022 18.1114 175.734 16.885C176.449 15.6558 177.425 14.7147 178.665 14.0589C179.904 13.4045 181.294 13.0767 182.834 13.0767C184.373 13.0767 185.762 13.4045 187.002 14.0589C188.241 14.7147 189.215 15.6558 189.928 16.885C190.643 18.1114 191 19.5299 191 21.1433C191 22.7538 190.638 24.1723 189.917 25.4015C189.193 26.628 188.208 27.5677 186.958 28.2221C185.711 28.8779 184.318 29.2044 182.779 29.2044ZM182.779 25.0449C183.698 25.0449 184.481 24.7087 185.127 24.0352C185.776 23.3629 186.1 22.3985 186.1 21.1433C186.1 19.8853 185.784 18.9195 185.154 18.2459C184.527 17.5737 183.753 17.2362 182.834 17.2362C181.895 17.2362 181.115 17.5695 180.496 18.2349C179.876 18.8975 179.567 19.8674 179.567 21.1433C179.567 22.3985 179.871 23.3629 180.48 24.0352C181.092 24.7087 181.857 25.0449 182.779 25.0449Z" fill="#20AD96"/>
</svg>
