<svg width="31" height="31" viewBox="0 0 31 31" fill="none" xmlns="http://www.w3.org/2000/svg">
<path d="M28.5278 14.9523C28.5347 11.5064 27.0064 8.28846 24.5477 5.87528C22.077 3.45028 18.7895 2.11711 15.2941 2.11711C8.07774 2.11711 2.19013 7.86345 2.19013 14.9456C2.19013 17.373 2.87974 19.7321 4.19485 21.7776C4.19489 21.7776 4.19493 21.7777 4.19498 21.7778L4.3741 22.0567L3.16441 26.3912L2.93169 27.2251L3.77028 27.0099L8.33697 25.8382L8.61698 26.0018L8.61805 26.0024C10.6275 27.1699 12.9334 27.7874 15.2873 27.7874C22.4897 27.7874 28.5278 22.048 28.5278 14.9523ZM28.5278 14.9523C28.5278 14.9523 28.5278 14.9523 28.5278 14.9522H28.0278L28.5278 14.9533C28.5278 14.953 28.5278 14.9526 28.5278 14.9523ZM21.974 18.5003L21.974 18.5003C21.7909 18.409 21.2348 18.1402 20.6797 17.8786C20.1084 17.6093 19.5876 17.3715 19.446 17.3226L19.4379 17.3198L19.438 17.3197C19.3536 17.2889 19.2969 17.2705 19.2523 17.2602C19.2382 17.257 19.2275 17.2551 19.2196 17.254C19.2091 17.2647 19.1923 17.284 19.1702 17.3168C18.8948 17.7248 18.1447 18.5815 17.9281 18.8256M21.974 18.5003L17.9281 18.8256M21.974 18.5003L21.9804 18.5034C22.0578 18.5406 22.1232 18.5711 22.1802 18.5977C22.2803 18.6445 22.3544 18.6791 22.4215 18.7161C22.4397 18.7261 22.4539 18.7346 22.4649 18.7415C22.4652 18.745 22.4656 18.7487 22.4659 18.7527C22.4716 18.8231 22.472 18.9285 22.4601 19.0642C22.4366 19.3346 22.3673 19.6946 22.2252 20.0878C22.1274 20.3583 21.7945 20.697 21.3088 21.0021C20.8369 21.2986 20.344 21.4867 20.0703 21.527C19.5084 21.6083 19.0292 21.6265 18.4098 21.5119C17.7763 21.3947 16.9789 21.1353 15.7895 20.6327C12.3987 19.1968 10.0919 15.9858 9.59937 15.3002C9.56338 15.2501 9.53708 15.2135 9.52075 15.192C9.51649 15.1863 9.51167 15.1799 9.50633 15.1727C9.394 15.0229 9.04978 14.5635 8.72512 13.937C8.37882 13.2688 8.07878 12.455 8.07878 11.658C8.07878 10.1555 8.81089 9.38681 9.19208 8.98654C9.2192 8.95807 9.24453 8.93147 9.2677 8.9066C9.50492 8.65713 9.77326 8.6031 9.91387 8.6031C10.1707 8.6031 10.4069 8.60329 10.6071 8.61554L10.6089 8.61564C10.6524 8.61815 10.6955 8.61805 10.7233 8.61799L10.7292 8.61798C10.7617 8.61792 10.7806 8.61806 10.7976 8.61902C10.8131 8.61989 10.821 8.62121 10.8247 8.62199L10.8277 8.62273L10.828 8.62287L10.83 8.62399C10.8314 8.62479 10.8338 8.62639 10.8374 8.62921C10.8444 8.63476 10.8574 8.6463 10.8753 8.66803C10.9124 8.71292 10.9669 8.79663 11.0309 8.9469C11.1234 9.16535 11.2541 9.47686 11.3952 9.81342C11.4935 10.0477 11.5968 10.294 11.6959 10.5296C11.93 11.0862 12.1545 11.6165 12.2134 11.7318C12.2473 11.7983 12.258 11.8373 12.2607 11.8609C12.2623 11.8754 12.2627 11.8936 12.246 11.9278C11.9601 12.4866 11.6746 12.7792 11.4441 13.0156C11.4143 13.0462 11.3854 13.0758 11.3576 13.1049C11.2485 13.2189 11.0722 13.4039 11.0049 13.6538C10.9258 13.9481 11.0189 14.2119 11.15 14.4326L11.1502 14.4329C11.9107 15.7103 12.6812 16.5888 13.5617 17.2896C14.4344 17.9842 15.3987 18.4902 16.5135 19.0357L21.974 18.5003ZM17.9281 18.8256L17.5543 18.4939L17.9288 18.8248C17.9285 18.8251 17.9283 18.8253 17.9281 18.8256ZM2.63223 22.4974L2.68958 22.2925L2.58171 22.1092C1.30223 19.934 0.629727 17.4689 0.629727 14.9456C0.629727 7.05294 7.19607 0.611328 15.2873 0.611328C19.207 0.611328 22.8906 2.1048 25.6567 4.81829C28.4321 7.54103 30.0882 11.1381 30.0882 14.9522C30.0882 22.8387 23.378 29.2865 15.2873 29.2865H15.2805C12.8219 29.2865 10.4108 28.6849 8.27198 27.5414L8.10033 27.4496L7.91182 27.498L0.715127 29.3471L2.63223 22.4974Z" fill="white" stroke="black"/>
</svg>
